<svg width="229" height="229" viewBox="0 0 229 229" fill="none" xmlns="http://www.w3.org/2000/svg">
<rect width="229" height="229" fill="#B5B5B5"/>
<g clip-path="url(#clip0_0_1)">
<rect width="1440" height="2378" transform="translate(-48 -247)" fill="#F7F7F7"/>
<path d="M104.092 0L96.7031 -26.1818H101.804L106.521 -6.94176H106.764L111.801 -26.1818H116.442L121.491 -6.92898H121.722L126.439 -26.1818H131.54L124.151 0H119.472L114.23 -18.3707H114.026L108.771 0H104.092ZM141.313 0.383523C139.344 0.383523 137.644 -0.0255682 136.212 -0.84375C134.789 -1.67045 133.694 -2.83807 132.927 -4.34659C132.16 -5.86364 131.776 -7.64915 131.776 -9.70312C131.776 -11.723 132.16 -13.4957 132.927 -15.0213C133.702 -16.5554 134.785 -17.7486 136.174 -18.6009C137.563 -19.4616 139.195 -19.892 141.07 -19.892C142.281 -19.892 143.423 -19.696 144.496 -19.304C145.579 -18.9205 146.533 -18.3239 147.36 -17.5142C148.195 -16.7045 148.852 -15.6733 149.329 -14.4205C149.806 -13.1761 150.045 -11.6932 150.045 -9.97159V-8.55256H133.95V-11.6719H145.609C145.6 -12.5582 145.408 -13.3466 145.033 -14.0369C144.658 -14.7358 144.134 -15.2855 143.461 -15.6861C142.796 -16.0866 142.021 -16.2869 141.134 -16.2869C140.188 -16.2869 139.357 -16.0568 138.641 -15.5966C137.925 -15.1449 137.367 -14.5483 136.967 -13.8068C136.575 -13.0739 136.374 -12.2685 136.366 -11.3906V-8.66761C136.366 -7.52557 136.575 -6.54545 136.992 -5.72727C137.41 -4.91761 137.994 -4.29545 138.744 -3.8608C139.494 -3.43466 140.371 -3.22159 141.377 -3.22159C142.05 -3.22159 142.66 -3.31534 143.205 -3.50284C143.751 -3.69886 144.224 -3.98438 144.624 -4.35938C145.025 -4.73438 145.327 -5.19886 145.532 -5.75284L149.853 -5.26705C149.58 -4.125 149.06 -3.12784 148.293 -2.27557C147.535 -1.43182 146.563 -0.775568 145.379 -0.306818C144.194 0.153409 142.839 0.383523 141.313 0.383523ZM158.588 -26.1818V0H153.96V-26.1818H158.588ZM171.912 0.383523C169.952 0.383523 168.268 -0.046875 166.862 -0.90767C165.464 -1.76847 164.386 -2.95739 163.628 -4.47443C162.878 -6 162.503 -7.75568 162.503 -9.74148C162.503 -11.7358 162.886 -13.4957 163.653 -15.0213C164.42 -16.5554 165.503 -17.7486 166.901 -18.6009C168.307 -19.4616 169.969 -19.892 171.886 -19.892C173.48 -19.892 174.891 -19.598 176.118 -19.0099C177.354 -18.4304 178.338 -17.608 179.071 -16.5426C179.804 -15.4858 180.222 -14.25 180.324 -12.8352H175.901C175.722 -13.7813 175.295 -14.5696 174.622 -15.2003C173.957 -15.8395 173.067 -16.1591 171.95 -16.1591C171.004 -16.1591 170.173 -15.9034 169.457 -15.392C168.741 -14.8892 168.183 -14.1648 167.783 -13.2188C167.391 -12.2727 167.195 -11.1392 167.195 -9.81818C167.195 -8.48011 167.391 -7.32955 167.783 -6.36648C168.175 -5.41193 168.724 -4.67472 169.432 -4.15483C170.148 -3.64347 170.987 -3.38778 171.95 -3.38778C172.632 -3.38778 173.241 -3.51563 173.778 -3.77131C174.324 -4.03551 174.78 -4.41477 175.146 -4.90909C175.513 -5.40341 175.764 -6.00426 175.901 -6.71165H180.324C180.213 -5.32244 179.804 -4.09091 179.097 -3.01705C178.389 -1.9517 177.426 -1.11648 176.207 -0.511364C174.989 0.0852273 173.557 0.383523 171.912 0.383523ZM192.689 0.383523C190.772 0.383523 189.11 -0.0383523 187.703 -0.882102C186.297 -1.72585 185.206 -2.90625 184.431 -4.4233C183.664 -5.94034 183.28 -7.71307 183.28 -9.74148C183.28 -11.7699 183.664 -13.5469 184.431 -15.0724C185.206 -16.598 186.297 -17.7827 187.703 -18.6264C189.11 -19.4702 190.772 -19.892 192.689 -19.892C194.607 -19.892 196.269 -19.4702 197.675 -18.6264C199.081 -17.7827 200.168 -16.598 200.935 -15.0724C201.711 -13.5469 202.098 -11.7699 202.098 -9.74148C202.098 -7.71307 201.711 -5.94034 200.935 -4.4233C200.168 -2.90625 199.081 -1.72585 197.675 -0.882102C196.269 -0.0383523 194.607 0.383523 192.689 0.383523ZM192.715 -3.32386C193.755 -3.32386 194.624 -3.60938 195.323 -4.1804C196.022 -4.75994 196.542 -5.53551 196.882 -6.5071C197.232 -7.47869 197.407 -8.56108 197.407 -9.75426C197.407 -10.956 197.232 -12.0426 196.882 -13.0142C196.542 -13.9943 196.022 -14.7741 195.323 -15.3537C194.624 -15.9332 193.755 -16.223 192.715 -16.223C191.65 -16.223 190.763 -15.9332 190.056 -15.3537C189.357 -14.7741 188.833 -13.9943 188.483 -13.0142C188.142 -12.0426 187.972 -10.956 187.972 -9.75426C187.972 -8.56108 188.142 -7.47869 188.483 -6.5071C188.833 -5.53551 189.357 -4.75994 190.056 -4.1804C190.763 -3.60938 191.65 -3.32386 192.715 -3.32386ZM206.026 0V-19.6364H210.45V-16.2997H210.68C211.089 -17.4247 211.766 -18.3026 212.712 -18.9332C213.658 -19.5724 214.788 -19.892 216.1 -19.892C217.43 -19.892 218.55 -19.5682 219.462 -18.9205C220.383 -18.2813 221.031 -17.4077 221.406 -16.2997H221.61C222.045 -17.3906 222.778 -18.2599 223.809 -18.9077C224.849 -19.5639 226.08 -19.892 227.504 -19.892C229.31 -19.892 230.785 -19.321 231.927 -18.179C233.069 -17.0369 233.64 -15.3707 233.64 -13.1804V0H228.999V-12.4645C228.999 -13.6832 228.675 -14.5739 228.028 -15.1364C227.38 -15.7074 226.587 -15.9929 225.65 -15.9929C224.533 -15.9929 223.66 -15.6435 223.029 -14.9446C222.407 -14.2543 222.096 -13.3551 222.096 -12.2472V0H217.558V-12.6562C217.558 -13.6705 217.251 -14.4801 216.637 -15.0852C216.032 -15.6903 215.239 -15.9929 214.259 -15.9929C213.594 -15.9929 212.989 -15.8224 212.444 -15.4815C211.898 -15.1491 211.464 -14.6761 211.14 -14.0625C210.816 -13.4574 210.654 -12.75 210.654 -11.9403V0H206.026ZM247.028 0.383523C245.059 0.383523 243.359 -0.0255682 241.927 -0.84375C240.504 -1.67045 239.409 -2.83807 238.642 -4.34659C237.875 -5.86364 237.491 -7.64915 237.491 -9.70312C237.491 -11.723 237.875 -13.4957 238.642 -15.0213C239.417 -16.5554 240.5 -17.7486 241.889 -18.6009C243.278 -19.4616 244.91 -19.892 246.785 -19.892C247.995 -19.892 249.137 -19.696 250.211 -19.304C251.294 -18.9205 252.248 -18.3239 253.075 -17.5142C253.91 -16.7045 254.566 -15.6733 255.044 -14.4205C255.521 -13.1761 255.76 -11.6932 255.76 -9.97159V-8.55256H239.664V-11.6719H251.324C251.315 -12.5582 251.123 -13.3466 250.748 -14.0369C250.373 -14.7358 249.849 -15.2855 249.176 -15.6861C248.511 -16.0866 247.735 -16.2869 246.849 -16.2869C245.903 -16.2869 245.072 -16.0568 244.356 -15.5966C243.64 -15.1449 243.082 -14.5483 242.681 -13.8068C242.289 -13.0739 242.089 -12.2685 242.081 -11.3906V-8.66761C242.081 -7.52557 242.289 -6.54545 242.707 -5.72727C243.125 -4.91761 243.708 -4.29545 244.458 -3.8608C245.208 -3.43466 246.086 -3.22159 247.092 -3.22159C247.765 -3.22159 248.375 -3.31534 248.92 -3.50284C249.466 -3.69886 249.939 -3.98438 250.339 -4.35938C250.74 -4.73438 251.042 -5.19886 251.247 -5.75284L255.568 -5.26705C255.295 -4.125 254.775 -3.12784 254.008 -2.27557C253.25 -1.43182 252.278 -0.775568 251.093 -0.306818C249.909 0.153409 248.554 0.383523 247.028 0.383523ZM278.41 -19.6364V-16.0568H267.121V-19.6364H278.41ZM269.908 -24.3409H274.536V-5.90625C274.536 -5.28409 274.63 -4.80682 274.817 -4.47443C275.013 -4.15057 275.269 -3.92898 275.585 -3.80966C275.9 -3.69034 276.249 -3.63068 276.633 -3.63068C276.923 -3.63068 277.187 -3.65199 277.425 -3.6946C277.673 -3.73722 277.86 -3.77557 277.988 -3.80966L278.768 -0.191761C278.521 -0.106534 278.167 -0.0127841 277.707 0.0894886C277.255 0.191761 276.701 0.25142 276.045 0.268466C274.886 0.302557 273.842 0.127841 272.913 -0.255682C271.984 -0.647727 271.246 -1.25284 270.701 -2.07102C270.164 -2.8892 269.9 -3.91193 269.908 -5.1392V-24.3409ZM290.635 0.383523C288.717 0.383523 287.055 -0.0383523 285.649 -0.882102C284.243 -1.72585 283.152 -2.90625 282.376 -4.4233C281.609 -5.94034 281.225 -7.71307 281.225 -9.74148C281.225 -11.7699 281.609 -13.5469 282.376 -15.0724C283.152 -16.598 284.243 -17.7827 285.649 -18.6264C287.055 -19.4702 288.717 -19.892 290.635 -19.892C292.552 -19.892 294.214 -19.4702 295.62 -18.6264C297.027 -17.7827 298.113 -16.598 298.88 -15.0724C299.656 -13.5469 300.044 -11.7699 300.044 -9.74148C300.044 -7.71307 299.656 -5.94034 298.88 -4.4233C298.113 -2.90625 297.027 -1.72585 295.62 -0.882102C294.214 -0.0383523 292.552 0.383523 290.635 0.383523ZM290.66 -3.32386C291.7 -3.32386 292.569 -3.60938 293.268 -4.1804C293.967 -4.75994 294.487 -5.53551 294.828 -6.5071C295.177 -7.47869 295.352 -8.56108 295.352 -9.75426C295.352 -10.956 295.177 -12.0426 294.828 -13.0142C294.487 -13.9943 293.967 -14.7741 293.268 -15.3537C292.569 -15.9332 291.7 -16.223 290.66 -16.223C289.595 -16.223 288.708 -15.9332 288.001 -15.3537C287.302 -14.7741 286.778 -13.9943 286.429 -13.0142C286.088 -12.0426 285.917 -10.956 285.917 -9.75426C285.917 -8.56108 286.088 -7.47869 286.429 -6.5071C286.778 -5.53551 287.302 -4.75994 288.001 -4.1804C288.708 -3.60938 289.595 -3.32386 290.66 -3.32386Z" fill="black"/>
<g clip-path="url(#clip1_0_1)">
<path fill-rule="evenodd" clip-rule="evenodd" d="M171.75 104.958V47.7083H47.7083V104.958H171.75ZM176.521 181.292L133.583 152.667V181.292H176.521ZM85.875 181.292V152.667H47.7083V181.292H85.875ZM28.625 28.625H190.833V124.042H28.625V28.625ZM114.5 133.583H143.125L176.521 162.208L200.375 181.292V200.375H114.5V133.583ZM28.625 133.583H104.958V200.375H28.625V133.583Z" fill="#3A6E91"/>
</g>
</g>
<defs>
<clipPath id="clip0_0_1">
<rect width="1440" height="2378" fill="white" transform="translate(-48 -247)"/>
</clipPath>
<clipPath id="clip1_0_1">
<rect width="229" height="229" fill="white"/>
</clipPath>
</defs>
</svg>
