<svg width="17" height="15" viewBox="0 0 17 15" fill="none" xmlns="http://www.w3.org/2000/svg">
<ellipse cx="8.58576" cy="7.5507" rx="5.43288" ry="5.39397" fill="#284B63"/>
<path d="M6.36582 5.16051L9.4056 9.55501L6.84804 9.31946C6.72832 9.30854 6.60913 9.34528 6.5167 9.4216C6.42426 9.49792 6.36615 9.60757 6.35514 9.72643C6.34414 9.8453 6.38114 9.96363 6.45801 10.0554C6.53488 10.1472 6.64533 10.2049 6.76505 10.2158L10.2858 10.5416C10.3122 10.542 10.3387 10.5403 10.3648 10.5368C10.3835 10.5241 10.3947 10.5165 10.4313 10.5297C10.4857 10.5173 10.5373 10.495 10.5836 10.464C10.6294 10.4323 10.6688 10.3924 10.7 10.3465C10.7187 10.3337 10.7299 10.3261 10.7306 10.2874C10.7433 10.2644 10.7543 10.2405 10.7635 10.2159L11.7212 6.83645C11.7392 6.77289 11.7429 6.70616 11.732 6.64102C11.7212 6.57587 11.6959 6.51391 11.6582 6.45953C11.5985 6.37284 11.5101 6.30965 11.4083 6.28092C11.351 6.26476 11.2911 6.25999 11.232 6.26686C11.1728 6.27374 11.1156 6.29213 11.0636 6.32098C11.0117 6.34984 10.9659 6.38859 10.9291 6.43502C10.8922 6.48145 10.8649 6.53464 10.8488 6.59155L10.152 9.04607L7.11223 4.65157C7.04425 4.5533 6.93974 4.48586 6.82168 4.4641C6.70363 4.44233 6.5817 4.46802 6.48272 4.53551C6.38374 4.603 6.31581 4.70676 6.29389 4.82397C6.27197 4.94118 6.29784 5.06224 6.36582 5.16051Z" fill="white"/>
</svg>
