<svg width="16" height="16" viewBox="0 0 16 16" fill="none" xmlns="http://www.w3.org/2000/svg">
<ellipse cx="5.39406" cy="5.43279" rx="5.39406" ry="5.43279" transform="matrix(-0.0494552 -0.998776 0.998811 -0.0487509 2.92534 13.457)" fill="#284B63"/>
<path d="M5.78852 10.122L10.0601 6.89183L9.94875 9.43957C9.94364 9.55883 9.98645 9.67522 10.0678 9.76313C10.1491 9.85105 10.2623 9.90329 10.3824 9.90837C10.5025 9.91344 10.6197 9.87094 10.7083 9.7902C10.7968 9.70947 10.8494 9.59711 10.8545 9.47786L11.0095 5.97055C11.0085 5.94432 11.0056 5.9182 11.0007 5.8924C10.987 5.87452 10.9788 5.86379 10.9903 5.82684C10.9752 5.7735 10.9502 5.72339 10.9167 5.67905C10.8826 5.63522 10.8405 5.59804 10.7928 5.56938C10.7791 5.5515 10.7708 5.54077 10.7319 5.54196C10.7081 5.53047 10.6835 5.52074 10.6583 5.51283L7.21156 4.72908C7.14673 4.71432 7.07942 4.71393 7.01442 4.72792C6.94942 4.74192 6.88832 4.76996 6.83548 4.81006C6.7512 4.87353 6.69196 4.9643 6.66806 5.06661C6.65462 5.12421 6.65276 5.18388 6.66257 5.24219C6.67239 5.3005 6.6937 5.35632 6.72528 5.40645C6.75686 5.45657 6.79809 5.50002 6.84661 5.5343C6.89513 5.56858 6.94998 5.59302 7.00803 5.60622L9.51148 6.17666L5.23988 9.4068C5.14436 9.47903 5.08165 9.58598 5.06555 9.70412C5.04945 9.82226 5.08128 9.9419 5.15403 10.0367C5.22679 10.1316 5.33451 10.1938 5.4535 10.2098C5.57249 10.2258 5.693 10.1942 5.78852 10.122Z" fill="white"/>
</svg>
