<svg width="55" height="59" viewBox="0 0 55 59" fill="none" xmlns="http://www.w3.org/2000/svg">
<g filter="url(#filter0_d_466_2682)">
<ellipse cx="27.3954" cy="25.4639" rx="23.3954" ry="25" fill="#3A6E91"/>
</g>
<g filter="url(#filter1_d_466_2682)">
<path d="M27.3955 12.1309C24.3932 12.1309 21.9523 14.616 21.9523 17.6728C21.9523 20.6713 24.2556 23.0981 27.258 23.2031C27.3497 23.1914 27.4413 23.1914 27.5101 23.2031H27.5903C28.9991 23.1552 30.3343 22.5514 31.3138 21.5194C32.2932 20.4873 32.8401 19.1079 32.8387 17.6728C32.8387 14.616 30.3978 12.1309 27.3955 12.1309ZM33.2168 26.3054C30.0197 24.1353 24.8057 24.1353 21.5856 26.3054C20.1303 27.2971 19.3281 28.6388 19.3281 30.0739C19.3281 31.509 20.1303 32.8391 21.5742 33.8191C23.1785 34.9158 25.287 35.4642 27.3955 35.4642C29.504 35.4642 31.6125 34.9158 33.2168 33.8191C34.6607 32.8274 35.4629 31.4973 35.4629 30.0506C35.4514 28.6155 34.6607 27.2854 33.2168 26.3054Z" fill="white"/>
</g>
<defs>
<filter id="filter0_d_466_2682" x="0" y="0.463867" width="54.7908" height="58" filterUnits="userSpaceOnUse" color-interpolation-filters="sRGB">
<feFlood flood-opacity="0" result="BackgroundImageFix"/>
<feColorMatrix in="SourceAlpha" type="matrix" values="0 0 0 0 0 0 0 0 0 0 0 0 0 0 0 0 0 0 127 0" result="hardAlpha"/>
<feOffset dy="4"/>
<feGaussianBlur stdDeviation="2"/>
<feComposite in2="hardAlpha" operator="out"/>
<feColorMatrix type="matrix" values="0 0 0 0 0 0 0 0 0 0 0 0 0 0 0 0 0 0 0.25 0"/>
<feBlend mode="normal" in2="BackgroundImageFix" result="effect1_dropShadow_466_2682"/>
<feBlend mode="normal" in="SourceGraphic" in2="effect1_dropShadow_466_2682" result="shape"/>
</filter>
<filter id="filter1_d_466_2682" x="15.3281" y="12.1309" width="24.1347" height="31.3335" filterUnits="userSpaceOnUse" color-interpolation-filters="sRGB">
<feFlood flood-opacity="0" result="BackgroundImageFix"/>
<feColorMatrix in="SourceAlpha" type="matrix" values="0 0 0 0 0 0 0 0 0 0 0 0 0 0 0 0 0 0 127 0" result="hardAlpha"/>
<feOffset dy="4"/>
<feGaussianBlur stdDeviation="2"/>
<feComposite in2="hardAlpha" operator="out"/>
<feColorMatrix type="matrix" values="0 0 0 0 0 0 0 0 0 0 0 0 0 0 0 0 0 0 0.25 0"/>
<feBlend mode="normal" in2="BackgroundImageFix" result="effect1_dropShadow_466_2682"/>
<feBlend mode="normal" in="SourceGraphic" in2="effect1_dropShadow_466_2682" result="shape"/>
</filter>
</defs>
</svg>
