<svg width="28" height="28" viewBox="0 0 28 28" fill="none" xmlns="http://www.w3.org/2000/svg">
<path d="M24.0236 11.0605L17.2243 4.26125C17.1199 4.15932 16.9968 4.07851 16.8617 4.02327C16.7212 3.96618 16.5714 3.93545 16.4197 3.93262H7.35404C6.4524 3.93262 5.58769 4.29079 4.95014 4.92835C4.31258 5.5659 3.95441 6.43061 3.95441 7.33225V20.9308C3.95441 21.8324 4.31258 22.6971 4.95014 23.3347C5.58769 23.9722 6.4524 24.3304 7.35404 24.3304H20.9526C21.8542 24.3304 22.7189 23.9722 23.3565 23.3347C23.994 22.6971 24.3522 21.8324 24.3522 20.9308V11.8651C24.3531 11.716 24.3245 11.5681 24.2681 11.4301C24.2117 11.292 24.1286 11.1664 24.0236 11.0605ZM10.7537 6.19904H15.2865V8.46546H10.7537V6.19904ZM17.5529 22.064H10.7537V18.6644C10.7537 18.3638 10.8731 18.0756 11.0856 17.8631C11.2981 17.6505 11.5863 17.5312 11.8869 17.5312H16.4197C16.7203 17.5312 17.0085 17.6505 17.221 17.8631C17.4336 18.0756 17.5529 18.3638 17.5529 18.6644V22.064ZM22.0858 20.9308C22.0858 21.2313 21.9664 21.5196 21.7539 21.7321C21.5414 21.9446 21.2531 22.064 20.9526 22.064H19.8194V18.6644C19.8194 17.7627 19.4612 16.898 18.8236 16.2605C18.1861 15.6229 17.3214 15.2647 16.4197 15.2647H11.8869C10.9852 15.2647 10.1205 15.6229 9.48298 16.2605C8.84543 16.898 8.48725 17.7627 8.48725 18.6644V22.064H7.35404C7.05349 22.064 6.76526 21.9446 6.55274 21.7321C6.34022 21.5196 6.22083 21.2313 6.22083 20.9308V7.33225C6.22083 7.03171 6.34022 6.74347 6.55274 6.53095C6.76526 6.31843 7.05349 6.19904 7.35404 6.19904H8.48725V9.59867C8.48725 9.89922 8.60664 10.1875 8.81916 10.4C9.03168 10.6125 9.31992 10.7319 9.62046 10.7319H16.4197C16.7203 10.7319 17.0085 10.6125 17.221 10.4C17.4336 10.1875 17.5529 9.89922 17.5529 9.59867V7.79687L22.0858 12.3297V20.9308Z" fill="white"/>
</svg>
