<svg width="14" height="14" viewBox="0 0 14 14" fill="none" xmlns="http://www.w3.org/2000/svg">
<path d="M4.32416 1.51378C4.0948 1.51378 3.87482 1.59163 3.71264 1.7302C3.55045 1.86877 3.45933 2.05671 3.45933 2.25268C3.45933 2.44865 3.55045 2.63659 3.71264 2.77516C3.87482 2.91373 4.0948 2.99158 4.32416 2.99158C4.55353 2.99158 4.77351 2.91373 4.93569 2.77516C5.09788 2.63659 5.189 2.44865 5.189 2.25268C5.189 2.05671 5.09788 1.86877 4.93569 1.7302C4.77351 1.59163 4.55353 1.51378 4.32416 1.51378ZM1.87669 1.51378C2.05536 1.08114 2.38671 0.70649 2.82506 0.441489C3.26341 0.176488 3.78718 0.0341797 4.32416 0.0341797C4.86115 0.0341797 5.38492 0.176488 5.82327 0.441489C6.26162 0.70649 6.59297 1.08114 6.77164 1.51378H12.9725C13.2019 1.51378 13.4218 1.59163 13.584 1.7302C13.7462 1.86877 13.8373 2.05671 13.8373 2.25268C13.8373 2.44865 13.7462 2.63659 13.584 2.77516C13.4218 2.91373 13.2019 2.99158 12.9725 2.99158H6.77164C6.59297 3.42423 6.26162 3.79887 5.82327 4.06387C5.38492 4.32888 4.86115 4.47118 4.32416 4.47118C3.78718 4.47118 3.26341 4.32888 2.82506 4.06387C2.38671 3.79887 2.05536 3.42423 1.87669 2.99158H0.864833C0.635465 2.99158 0.415492 2.91373 0.253304 2.77516C0.0911162 2.63659 0 2.44865 0 2.25268C0 2.05671 0.0911162 1.86877 0.253304 1.7302C0.415492 1.59163 0.635465 1.51378 0.864833 1.51378H1.87669ZM9.51316 5.94717C9.28379 5.94717 9.06382 6.02501 8.90163 6.16358C8.73945 6.30215 8.64833 6.4901 8.64833 6.68606C8.64833 6.88203 8.73945 7.06997 8.90163 7.20854C9.06382 7.34711 9.28379 7.42496 9.51316 7.42496C9.74253 7.42496 9.9625 7.34711 10.1247 7.20854C10.2869 7.06997 10.378 6.88203 10.378 6.68606C10.378 6.4901 10.2869 6.30215 10.1247 6.16358C9.9625 6.02501 9.74253 5.94717 9.51316 5.94717ZM7.06569 5.94717C7.24436 5.51452 7.57571 5.13987 8.01406 4.87487C8.45241 4.60987 8.97618 4.46756 9.51316 4.46756C10.0501 4.46756 10.5739 4.60987 11.0123 4.87487C11.4506 5.13987 11.782 5.51452 11.9606 5.94717H12.9725C13.2019 5.94717 13.4218 6.02501 13.584 6.16358C13.7462 6.30215 13.8373 6.4901 13.8373 6.68606C13.8373 6.88203 13.7462 7.06997 13.584 7.20854C13.4218 7.34711 13.2019 7.42496 12.9725 7.42496H11.9606C11.782 7.85761 11.4506 8.23225 11.0123 8.49725C10.5739 8.76226 10.0501 8.90456 9.51316 8.90456C8.97618 8.90456 8.45241 8.76226 8.01406 8.49725C7.57571 8.23225 7.24436 7.85761 7.06569 7.42496H0.864833C0.635465 7.42496 0.415492 7.34711 0.253304 7.20854C0.0911162 7.06997 0 6.88203 0 6.68606C0 6.4901 0.0911162 6.30215 0.253304 6.16358C0.415492 6.02501 0.635465 5.94717 0.864833 5.94717H7.06569ZM4.32416 10.3805C4.0948 10.3805 3.87482 10.4584 3.71264 10.597C3.55045 10.7355 3.45933 10.9235 3.45933 11.1194C3.45933 11.3154 3.55045 11.5034 3.71264 11.6419C3.87482 11.7805 4.0948 11.8583 4.32416 11.8583C4.55353 11.8583 4.77351 11.7805 4.93569 11.6419C5.09788 11.5034 5.189 11.3154 5.189 11.1194C5.189 10.9235 5.09788 10.7355 4.93569 10.597C4.77351 10.4584 4.55353 10.3805 4.32416 10.3805ZM1.87669 10.3805C2.05536 9.9479 2.38671 9.57325 2.82506 9.30825C3.26341 9.04325 3.78718 8.90094 4.32416 8.90094C4.86115 8.90094 5.38492 9.04325 5.82327 9.30825C6.26162 9.57325 6.59297 9.9479 6.77164 10.3805H12.9725C13.2019 10.3805 13.4218 10.4584 13.584 10.597C13.7462 10.7355 13.8373 10.9235 13.8373 11.1194C13.8373 11.3154 13.7462 11.5034 13.584 11.6419C13.4218 11.7805 13.2019 11.8583 12.9725 11.8583H6.77164C6.59297 12.291 6.26162 12.6656 5.82327 12.9306C5.38492 13.1956 4.86115 13.3379 4.32416 13.3379C3.78718 13.3379 3.26341 13.1956 2.82506 12.9306C2.38671 12.6656 2.05536 12.291 1.87669 11.8583H0.864833C0.635465 11.8583 0.415492 11.7805 0.253304 11.6419C0.0911162 11.5034 0 11.3154 0 11.1194C0 10.9235 0.0911162 10.7355 0.253304 10.597C0.415492 10.4584 0.635465 10.3805 0.864833 10.3805H1.87669Z" fill="#284B63"/>
</svg>
